<svg width="1308" height="743" viewBox="0 0 1308 743" fill="none" xmlns="http://www.w3.org/2000/svg">
<line x1="0.5" y1="1" x2="0.5" y2="626" stroke="black"/>
<line x1="327.5" y1="1" x2="327.5" y2="626" stroke="black"/>
<line x1="982.5" y1="1" x2="982.5" y2="626" stroke="black"/>
<line x1="654.5" y1="1" x2="654.5" y2="626" stroke="black"/>
<line y1="-0.5" x2="625.007" y2="-0.5" transform="matrix(0 -1 1 2.94021e-05 1305 626.007)" stroke="black"/>
<line y1="0.5" x2="1304" y2="0.5" stroke="black"/>
<line y1="103.5" x2="1305" y2="103.5" stroke="black"/>
<line y1="161.5" x2="1305" y2="161.5" stroke="black"/>
<line x1="3" y1="625.5" x2="1304" y2="625.5" stroke="black"/>
<line x1="162.5" y1="626" x2="162.5" y2="103.999" stroke="black"/>
<line x1="489.5" y1="626" x2="489.5" y2="103.999" stroke="black"/>
<line x1="1145.5" y1="626" x2="1145.5" y2="103.999" stroke="black"/>
<line x1="818.5" y1="626" x2="818.5" y2="103.999" stroke="black"/>
<path d="M117.38 67H138.26V64H129.94V37.64H127.18C125.26 38.84 122.78 39.2 119.5 39.72V42.08H126.26V64H117.38V67ZM158.58 33.28C156.62 38.68 153.3 43.88 149.5 47.2C150.26 47.6 151.5 48.6 152.1 49.12C155.82 45.52 159.38 39.96 161.58 34.04L158.58 33.28ZM157.94 38.24L156.5 41.16H183.74V38.24H157.94ZM155.98 47.32V59.6H158.98V50.12H182.86V47.32H155.98ZM149.38 58.08V61H185.62V58.08H149.38ZM167.98 39.76V70.24H171.06V39.76H167.98ZM205.3 33.52C203.9 39.92 201.46 46.16 198.06 50.08C198.9 50.48 200.34 51.28 200.94 51.76C204.18 47.52 206.82 41 208.42 34.08L205.3 33.52ZM211.9 43.32H210.3V48.68C210.3 52.48 208.22 62.96 196.02 67.76C196.58 68.32 197.5 69.56 197.86 70.2C207.54 66.16 211.18 58.12 211.86 54.32C212.5 58.08 215.9 66.36 224.3 70.2C224.78 69.48 225.7 68.24 226.26 67.52C215.38 62.84 213.42 52.24 213.42 48.68V43.32H211.9ZM188.98 61.96L190.94 64.44C193.66 61.84 197.02 58.36 199.98 55.16L198.34 52.56C194.94 56.12 191.3 59.8 188.98 61.96ZM190.26 38.24C192.86 40.04 196.02 42.68 197.54 44.44L199.78 42C198.22 40.28 194.98 37.76 192.38 36.08L190.26 38.24ZM205.38 40.64L204.02 43.6H223.38V40.64H205.38ZM222.34 40.64V41.36C221.66 44.44 219.94 48.68 218.62 51.08C219.38 51.4 220.54 52 221.18 52.36C222.66 49.68 224.54 45.52 225.58 41.68L223.38 40.44L222.82 40.64H222.34Z" fill="black"/>
<path d="M442.22 67H463.1V63.92H452.78C451.26 63.92 449.74 64 448.14 64.12C455.66 58 461.7 52 461.7 46.04C461.7 40.52 457.82 37.16 452.02 37.16C447.86 37.16 444.5 39.24 441.74 42.4L444.06 44.52C446.38 41.88 448.74 40.2 451.86 40.2C455.78 40.2 458.06 42.72 458.06 46.16C458.06 51.24 451.46 57.48 442.22 64.88V67ZM483.58 33.28C481.62 38.68 478.3 43.88 474.5 47.2C475.26 47.6 476.5 48.6 477.1 49.12C480.82 45.52 484.38 39.96 486.58 34.04L483.58 33.28ZM482.94 38.24L481.5 41.16H508.74V38.24H482.94ZM480.98 47.32V59.6H483.98V50.12H507.86V47.32H480.98ZM474.38 58.08V61H510.62V58.08H474.38ZM492.98 39.76V70.24H496.06V39.76H492.98ZM530.3 33.52C528.9 39.92 526.46 46.16 523.06 50.08C523.9 50.48 525.34 51.28 525.94 51.76C529.18 47.52 531.82 41 533.42 34.08L530.3 33.52ZM536.9 43.32H535.3V48.68C535.3 52.48 533.22 62.96 521.02 67.76C521.58 68.32 522.5 69.56 522.86 70.2C532.54 66.16 536.18 58.12 536.86 54.32C537.5 58.08 540.9 66.36 549.3 70.2C549.78 69.48 550.7 68.24 551.26 67.52C540.38 62.84 538.42 52.24 538.42 48.68V43.32H536.9ZM513.98 61.96L515.94 64.44C518.66 61.84 522.02 58.36 524.98 55.16L523.34 52.56C519.94 56.12 516.3 59.8 513.98 61.96ZM515.26 38.24C517.86 40.04 521.02 42.68 522.54 44.44L524.78 42C523.22 40.28 519.98 37.76 517.38 36.08L515.26 38.24ZM530.38 40.64L529.02 43.6H548.38V40.64H530.38ZM547.34 40.64V41.36C546.66 44.44 544.94 48.68 543.62 51.08C544.38 51.4 545.54 52 546.18 52.36C547.66 49.68 549.54 45.52 550.58 41.68L548.38 40.44L547.82 40.64H547.34Z" fill="black"/>
<path d="M777.88 67.52C783.44 67.52 788 64.36 788 59.24C788 55.16 785.28 52.4 781.56 51.72V51.56C785.04 50.56 787.2 48.08 787.2 44.56C787.2 40.16 783.56 37.16 777.72 37.16C773.64 37.16 770.28 38.92 767.48 41.6L769.52 43.88C771.84 41.44 774.6 40.16 777.6 40.16C781.48 40.16 783.68 42.16 783.68 44.92C783.68 47.8 780.88 50.4 774.32 50.4V53.2C781.6 53.2 784.48 55.52 784.48 59.04C784.48 62.4 781.44 64.48 777.68 64.48C773.76 64.48 770.84 62.8 768.64 60.2L766.68 62.56C768.96 65.28 772.48 67.52 777.88 67.52ZM809.08 33.28C807.12 38.68 803.8 43.88 800 47.2C800.76 47.6 802 48.6 802.6 49.12C806.32 45.52 809.88 39.96 812.08 34.04L809.08 33.28ZM808.44 38.24L807 41.16H834.24V38.24H808.44ZM806.48 47.32V59.6H809.48V50.12H833.36V47.32H806.48ZM799.88 58.08V61H836.12V58.08H799.88ZM818.48 39.76V70.24H821.56V39.76H818.48ZM855.8 33.52C854.4 39.92 851.96 46.16 848.56 50.08C849.4 50.48 850.84 51.28 851.44 51.76C854.68 47.52 857.32 41 858.92 34.08L855.8 33.52ZM862.4 43.32H860.8V48.68C860.8 52.48 858.72 62.96 846.52 67.76C847.08 68.32 848 69.56 848.36 70.2C858.04 66.16 861.68 58.12 862.36 54.32C863 58.08 866.4 66.36 874.8 70.2C875.28 69.48 876.2 68.24 876.76 67.52C865.88 62.84 863.92 52.24 863.92 48.68V43.32H862.4ZM839.48 61.96L841.44 64.44C844.16 61.84 847.52 58.36 850.48 55.16L848.84 52.56C845.44 56.12 841.8 59.8 839.48 61.96ZM840.76 38.24C843.36 40.04 846.52 42.68 848.04 44.44L850.28 42C848.72 40.28 845.48 37.76 842.88 36.08L840.76 38.24ZM855.88 40.64L854.52 43.6H873.88V40.64H855.88ZM872.84 40.64V41.36C872.16 44.44 870.44 48.68 869.12 51.08C869.88 51.4 871.04 52 871.68 52.36C873.16 49.68 875.04 45.52 876.08 41.68L873.88 40.44L873.32 40.64H872.84Z" fill="black"/>
<path d="M1107.14 67H1110.58V37.64H1106.06L1092.34 56.48V58.92H1115.1V56H1096.54L1104.02 45.88C1105.06 44.36 1106.02 42.72 1107.18 40.88H1107.34C1107.22 42.84 1107.14 44.64 1107.14 46.24V67ZM1134.58 33.28C1132.62 38.68 1129.3 43.88 1125.5 47.2C1126.26 47.6 1127.5 48.6 1128.1 49.12C1131.82 45.52 1135.38 39.96 1137.58 34.04L1134.58 33.28ZM1133.94 38.24L1132.5 41.16H1159.74V38.24H1133.94ZM1131.98 47.32V59.6H1134.98V50.12H1158.86V47.32H1131.98ZM1125.38 58.08V61H1161.62V58.08H1125.38ZM1143.98 39.76V70.24H1147.06V39.76H1143.98ZM1181.3 33.52C1179.9 39.92 1177.46 46.16 1174.06 50.08C1174.9 50.48 1176.34 51.28 1176.94 51.76C1180.18 47.52 1182.82 41 1184.42 34.08L1181.3 33.52ZM1187.9 43.32H1186.3V48.68C1186.3 52.48 1184.22 62.96 1172.02 67.76C1172.58 68.32 1173.5 69.56 1173.86 70.2C1183.54 66.16 1187.18 58.12 1187.86 54.32C1188.5 58.08 1191.9 66.36 1200.3 70.2C1200.78 69.48 1201.7 68.24 1202.26 67.52C1191.38 62.84 1189.42 52.24 1189.42 48.68V43.32H1187.9ZM1164.98 61.96L1166.94 64.44C1169.66 61.84 1173.02 58.36 1175.98 55.16L1174.34 52.56C1170.94 56.12 1167.3 59.8 1164.98 61.96ZM1166.26 38.24C1168.86 40.04 1172.02 42.68 1173.54 44.44L1175.78 42C1174.22 40.28 1170.98 37.76 1168.38 36.08L1166.26 38.24ZM1181.38 40.64L1180.02 43.6H1199.38V40.64H1181.38ZM1198.34 40.64V41.36C1197.66 44.44 1195.94 48.68 1194.62 51.08C1195.38 51.4 1196.54 52 1197.18 52.36C1198.66 49.68 1200.54 45.52 1201.58 41.68L1199.38 40.44L1198.82 40.64H1198.34Z" fill="black"/>
<path d="M16.1624 142H28.6904V140.2H23.6984V124.384H22.0424C20.8904 125.104 19.4024 125.32 17.4344 125.632V127.048H21.4904V140.2H16.1624V142ZM41.5544 138.928C41.5544 141.28 42.3944 142.456 46.8584 142.456C49.8584 142.456 52.2584 142.264 54.3944 141.952L54.4664 139.888C52.0904 140.368 49.7624 140.608 46.9784 140.608C44.1224 140.608 43.4984 140.08 43.4984 138.424C43.4984 136.048 43.4984 128.2 43.4984 125.68C43.4984 124.984 43.5704 124.168 43.6664 123.472H41.4104C41.5304 124.168 41.5544 124.96 41.5544 125.68C41.5544 128.224 41.5544 136.72 41.5544 138.928ZM55.4984 128.2L54.0824 127.096C53.7944 127.264 53.3144 127.408 52.8104 127.528C50.9864 127.96 38.7224 130.432 35.6504 130.792L36.0344 132.808C38.9144 132.184 51.8504 129.592 52.5944 129.448C51.8744 130.864 50.1224 133.504 48.3224 135.16L49.9784 136.144C51.9224 134.176 53.7944 131.152 54.8984 129.16C55.0664 128.872 55.3064 128.464 55.4984 128.2ZM77.1816 124.528L74.9976 123.784C74.8776 124.288 74.6616 125.08 74.4936 125.56C73.6776 127.912 72.4776 130.576 70.5096 133.12C68.0376 136.264 64.9656 139.12 60.5016 141.256L62.1336 142.744C66.6696 140.392 69.7896 137.224 72.0936 134.296C74.0616 131.8 75.5016 128.68 76.4136 126.304C76.6056 125.8 76.9416 124.984 77.1816 124.528ZM64.5096 127.36L63.2376 128.872C65.8776 130.48 68.9976 132.856 70.7256 134.296C73.1256 136.312 75.2136 138.208 77.2056 140.512L78.7176 138.856C76.8216 136.792 74.4456 134.704 72.0456 132.736C70.2216 131.272 66.8856 128.872 64.5096 127.36ZM100.942 125.968L99.7416 125.032C99.3576 125.152 98.7096 125.224 97.9416 125.224C97.0296 125.224 89.6136 125.224 88.6776 125.224C87.9336 125.224 86.5656 125.128 86.2536 125.08V127.24C86.5176 127.216 87.8136 127.12 88.6776 127.12C89.4936 127.12 97.1736 127.12 98.0376 127.12C97.4136 129.112 95.6616 131.968 94.0296 133.816C91.5576 136.552 88.0296 139.432 84.1416 140.92L85.6776 142.528C89.4696 140.8 92.9016 137.944 95.5896 134.944C97.5816 132.736 99.4056 129.376 100.366 127C100.486 126.688 100.798 126.16 100.942 125.968ZM95.9016 133.696L94.5336 135.04C97.1256 137.32 99.9336 140.392 101.662 142.672L103.318 141.208C101.686 139.216 98.4936 135.856 95.9016 133.696ZM115.726 131.008L114.406 132.352C117.382 134.2 121.486 137.152 123.694 139.168L125.11 137.488C122.734 135.568 118.798 132.808 115.726 131.008ZM126.694 126.64L125.11 125.68C124.726 125.824 124.198 125.896 123.55 125.896H115.918L115.15 127.624H124.03C123.478 129.856 121.966 132.904 120.118 135.112C117.958 137.68 114.694 140.224 110.23 141.568L111.934 143.08C116.494 141.4 119.614 138.832 121.798 136.144C123.91 133.552 125.422 130.36 126.142 127.912C126.262 127.528 126.502 126.976 126.694 126.64ZM118.606 123.16L116.422 122.464C116.278 123.088 115.894 123.952 115.654 124.36C114.55 126.568 112.078 130.168 107.974 132.736L109.558 133.96C113.398 131.32 116.11 127.696 117.526 125.056C117.766 124.6 118.198 123.784 118.606 123.16ZM132.19 131.608V133.96C132.958 133.912 134.23 133.864 135.55 133.864C137.326 133.864 146.902 133.864 148.726 133.864C149.782 133.864 150.79 133.936 151.294 133.96V131.608C150.742 131.656 149.902 131.752 148.702 131.752C146.926 131.752 137.302 131.752 135.55 131.752C134.182 131.752 132.934 131.68 132.19 131.608Z" fill="black"/>
<path d="M180.066 142H192.594V140.152H186.402C185.49 140.152 184.578 140.2 183.618 140.272C188.13 136.6 191.754 133 191.754 129.424C191.754 126.112 189.426 124.096 185.946 124.096C183.45 124.096 181.434 125.344 179.778 127.24L181.17 128.512C182.562 126.928 183.978 125.92 185.85 125.92C188.202 125.92 189.57 127.432 189.57 129.496C189.57 132.544 185.61 136.288 180.066 140.728V142ZM205.554 138.928C205.554 141.28 206.394 142.456 210.858 142.456C213.858 142.456 216.258 142.264 218.394 141.952L218.466 139.888C216.09 140.368 213.762 140.608 210.978 140.608C208.122 140.608 207.498 140.08 207.498 138.424C207.498 136.048 207.498 128.2 207.498 125.68C207.498 124.984 207.57 124.168 207.666 123.472H205.41C205.53 124.168 205.554 124.96 205.554 125.68C205.554 128.224 205.554 136.72 205.554 138.928ZM219.498 128.2L218.082 127.096C217.794 127.264 217.314 127.408 216.81 127.528C214.986 127.96 202.722 130.432 199.65 130.792L200.034 132.808C202.914 132.184 215.85 129.592 216.594 129.448C215.874 130.864 214.122 133.504 212.322 135.16L213.978 136.144C215.922 134.176 217.794 131.152 218.898 129.16C219.066 128.872 219.306 128.464 219.498 128.2ZM241.182 124.528L238.998 123.784C238.878 124.288 238.662 125.08 238.494 125.56C237.678 127.912 236.478 130.576 234.51 133.12C232.038 136.264 228.966 139.12 224.502 141.256L226.134 142.744C230.67 140.392 233.79 137.224 236.094 134.296C238.062 131.8 239.502 128.68 240.414 126.304C240.606 125.8 240.942 124.984 241.182 124.528ZM228.51 127.36L227.238 128.872C229.878 130.48 232.998 132.856 234.726 134.296C237.126 136.312 239.214 138.208 241.206 140.512L242.718 138.856C240.822 136.792 238.446 134.704 236.046 132.736C234.222 131.272 230.886 128.872 228.51 127.36ZM264.942 125.968L263.742 125.032C263.358 125.152 262.71 125.224 261.942 125.224C261.03 125.224 253.614 125.224 252.678 125.224C251.934 125.224 250.566 125.128 250.254 125.08V127.24C250.518 127.216 251.814 127.12 252.678 127.12C253.494 127.12 261.174 127.12 262.038 127.12C261.414 129.112 259.662 131.968 258.03 133.816C255.558 136.552 252.03 139.432 248.142 140.92L249.678 142.528C253.47 140.8 256.902 137.944 259.59 134.944C261.582 132.736 263.406 129.376 264.366 127C264.486 126.688 264.798 126.16 264.942 125.968ZM259.902 133.696L258.534 135.04C261.126 137.32 263.934 140.392 265.662 142.672L267.318 141.208C265.686 139.216 262.494 135.856 259.902 133.696ZM279.726 131.008L278.406 132.352C281.382 134.2 285.486 137.152 287.694 139.168L289.11 137.488C286.734 135.568 282.798 132.808 279.726 131.008ZM290.694 126.64L289.11 125.68C288.726 125.824 288.198 125.896 287.55 125.896H279.918L279.15 127.624H288.03C287.478 129.856 285.966 132.904 284.118 135.112C281.958 137.68 278.694 140.224 274.23 141.568L275.934 143.08C280.494 141.4 283.614 138.832 285.798 136.144C287.91 133.552 289.422 130.36 290.142 127.912C290.262 127.528 290.502 126.976 290.694 126.64ZM282.606 123.16L280.422 122.464C280.278 123.088 279.894 123.952 279.654 124.36C278.55 126.568 276.078 130.168 271.974 132.736L273.558 133.96C277.398 131.32 280.11 127.696 281.526 125.056C281.766 124.6 282.198 123.784 282.606 123.16ZM296.19 131.608V133.96C296.958 133.912 298.23 133.864 299.55 133.864C301.326 133.864 310.902 133.864 312.726 133.864C313.782 133.864 314.79 133.936 315.294 133.96V131.608C314.742 131.656 313.902 131.752 312.702 131.752C310.926 131.752 301.302 131.752 299.55 131.752C298.182 131.752 296.934 131.68 296.19 131.608Z" fill="black"/>
<path d="M349.162 142.312C352.498 142.312 355.234 140.416 355.234 137.344C355.234 134.896 353.602 133.24 351.37 132.832V132.736C353.458 132.136 354.754 130.648 354.754 128.536C354.754 125.896 352.57 124.096 349.066 124.096C346.618 124.096 344.602 125.152 342.922 126.76L344.146 128.128C345.538 126.664 347.194 125.896 348.994 125.896C351.322 125.896 352.642 127.096 352.642 128.752C352.642 130.48 350.962 132.04 347.026 132.04V133.72C351.394 133.72 353.122 135.112 353.122 137.224C353.122 139.24 351.298 140.488 349.042 140.488C346.69 140.488 344.938 139.48 343.618 137.92L342.442 139.336C343.81 140.968 345.922 142.312 349.162 142.312ZM368.554 138.928C368.554 141.28 369.394 142.456 373.858 142.456C376.858 142.456 379.258 142.264 381.394 141.952L381.466 139.888C379.09 140.368 376.762 140.608 373.978 140.608C371.122 140.608 370.498 140.08 370.498 138.424C370.498 136.048 370.498 128.2 370.498 125.68C370.498 124.984 370.57 124.168 370.666 123.472H368.41C368.53 124.168 368.554 124.96 368.554 125.68C368.554 128.224 368.554 136.72 368.554 138.928ZM382.498 128.2L381.082 127.096C380.794 127.264 380.314 127.408 379.81 127.528C377.986 127.96 365.722 130.432 362.65 130.792L363.034 132.808C365.914 132.184 378.85 129.592 379.594 129.448C378.874 130.864 377.122 133.504 375.322 135.16L376.978 136.144C378.922 134.176 380.794 131.152 381.898 129.16C382.066 128.872 382.306 128.464 382.498 128.2ZM404.182 124.528L401.998 123.784C401.878 124.288 401.662 125.08 401.494 125.56C400.678 127.912 399.478 130.576 397.51 133.12C395.038 136.264 391.966 139.12 387.502 141.256L389.134 142.744C393.67 140.392 396.79 137.224 399.094 134.296C401.062 131.8 402.502 128.68 403.414 126.304C403.606 125.8 403.942 124.984 404.182 124.528ZM391.51 127.36L390.238 128.872C392.878 130.48 395.998 132.856 397.726 134.296C400.126 136.312 402.214 138.208 404.206 140.512L405.718 138.856C403.822 136.792 401.446 134.704 399.046 132.736C397.222 131.272 393.886 128.872 391.51 127.36ZM427.942 125.968L426.742 125.032C426.358 125.152 425.71 125.224 424.942 125.224C424.03 125.224 416.614 125.224 415.678 125.224C414.934 125.224 413.566 125.128 413.254 125.08V127.24C413.518 127.216 414.814 127.12 415.678 127.12C416.494 127.12 424.174 127.12 425.038 127.12C424.414 129.112 422.662 131.968 421.03 133.816C418.558 136.552 415.03 139.432 411.142 140.92L412.678 142.528C416.47 140.8 419.902 137.944 422.59 134.944C424.582 132.736 426.406 129.376 427.366 127C427.486 126.688 427.798 126.16 427.942 125.968ZM422.902 133.696L421.534 135.04C424.126 137.32 426.934 140.392 428.662 142.672L430.318 141.208C428.686 139.216 425.494 135.856 422.902 133.696ZM442.726 131.008L441.406 132.352C444.382 134.2 448.486 137.152 450.694 139.168L452.11 137.488C449.734 135.568 445.798 132.808 442.726 131.008ZM453.694 126.64L452.11 125.68C451.726 125.824 451.198 125.896 450.55 125.896H442.918L442.15 127.624H451.03C450.478 129.856 448.966 132.904 447.118 135.112C444.958 137.68 441.694 140.224 437.23 141.568L438.934 143.08C443.494 141.4 446.614 138.832 448.798 136.144C450.91 133.552 452.422 130.36 453.142 127.912C453.262 127.528 453.502 126.976 453.694 126.64ZM445.606 123.16L443.422 122.464C443.278 123.088 442.894 123.952 442.654 124.36C441.55 126.568 439.078 130.168 434.974 132.736L436.558 133.96C440.398 131.32 443.11 127.696 444.526 125.056C444.766 124.6 445.198 123.784 445.606 123.16ZM459.19 131.608V133.96C459.958 133.912 461.23 133.864 462.55 133.864C464.326 133.864 473.902 133.864 475.726 133.864C476.782 133.864 477.79 133.936 478.294 133.96V131.608C477.742 131.656 476.902 131.752 475.702 131.752C473.926 131.752 464.302 131.752 462.55 131.752C461.182 131.752 459.934 131.68 459.19 131.608Z" fill="black"/>
<path d="M515.918 142H517.982V124.384H515.27L507.038 135.688V137.152H520.694V135.4H509.558L514.046 129.328C514.67 128.416 515.246 127.432 515.942 126.328H516.038C515.966 127.504 515.918 128.584 515.918 129.544V142ZM533.054 138.928C533.054 141.28 533.894 142.456 538.358 142.456C541.358 142.456 543.758 142.264 545.894 141.952L545.966 139.888C543.59 140.368 541.262 140.608 538.478 140.608C535.622 140.608 534.998 140.08 534.998 138.424C534.998 136.048 534.998 128.2 534.998 125.68C534.998 124.984 535.07 124.168 535.166 123.472H532.91C533.03 124.168 533.054 124.96 533.054 125.68C533.054 128.224 533.054 136.72 533.054 138.928ZM546.998 128.2L545.582 127.096C545.294 127.264 544.814 127.408 544.31 127.528C542.486 127.96 530.222 130.432 527.15 130.792L527.534 132.808C530.414 132.184 543.35 129.592 544.094 129.448C543.374 130.864 541.622 133.504 539.822 135.16L541.478 136.144C543.422 134.176 545.294 131.152 546.398 129.16C546.566 128.872 546.806 128.464 546.998 128.2ZM568.682 124.528L566.498 123.784C566.378 124.288 566.162 125.08 565.994 125.56C565.178 127.912 563.978 130.576 562.01 133.12C559.538 136.264 556.466 139.12 552.002 141.256L553.634 142.744C558.17 140.392 561.29 137.224 563.594 134.296C565.562 131.8 567.002 128.68 567.914 126.304C568.106 125.8 568.442 124.984 568.682 124.528ZM556.01 127.36L554.738 128.872C557.378 130.48 560.498 132.856 562.226 134.296C564.626 136.312 566.714 138.208 568.706 140.512L570.218 138.856C568.322 136.792 565.946 134.704 563.546 132.736C561.722 131.272 558.386 128.872 556.01 127.36ZM592.442 125.968L591.242 125.032C590.858 125.152 590.21 125.224 589.442 125.224C588.53 125.224 581.114 125.224 580.178 125.224C579.434 125.224 578.066 125.128 577.754 125.08V127.24C578.018 127.216 579.314 127.12 580.178 127.12C580.994 127.12 588.674 127.12 589.538 127.12C588.914 129.112 587.162 131.968 585.53 133.816C583.058 136.552 579.53 139.432 575.642 140.92L577.178 142.528C580.97 140.8 584.402 137.944 587.09 134.944C589.082 132.736 590.906 129.376 591.866 127C591.986 126.688 592.298 126.16 592.442 125.968ZM587.402 133.696L586.034 135.04C588.626 137.32 591.434 140.392 593.162 142.672L594.818 141.208C593.186 139.216 589.994 135.856 587.402 133.696ZM607.226 131.008L605.906 132.352C608.882 134.2 612.986 137.152 615.194 139.168L616.61 137.488C614.234 135.568 610.298 132.808 607.226 131.008ZM618.194 126.64L616.61 125.68C616.226 125.824 615.698 125.896 615.05 125.896H607.418L606.65 127.624H615.53C614.978 129.856 613.466 132.904 611.618 135.112C609.458 137.68 606.194 140.224 601.73 141.568L603.434 143.08C607.994 141.4 611.114 138.832 613.298 136.144C615.41 133.552 616.922 130.36 617.642 127.912C617.762 127.528 618.002 126.976 618.194 126.64ZM610.106 123.16L607.922 122.464C607.778 123.088 607.394 123.952 607.154 124.36C606.05 126.568 603.578 130.168 599.474 132.736L601.058 133.96C604.898 131.32 607.61 127.696 609.026 125.056C609.266 124.6 609.698 123.784 610.106 123.16ZM623.69 131.608V133.96C624.458 133.912 625.73 133.864 627.05 133.864C628.826 133.864 638.402 133.864 640.226 133.864C641.282 133.864 642.29 133.936 642.794 133.96V131.608C642.242 131.656 641.402 131.752 640.202 131.752C638.426 131.752 628.802 131.752 627.05 131.752C625.682 131.752 624.434 131.68 623.69 131.608Z" fill="black"/>
<path d="M675.35 142.312C678.662 142.312 681.83 140.152 681.83 136.264C681.83 132.496 679.07 130.648 675.83 130.648C674.342 130.648 673.262 130.912 672.206 131.536L672.662 126.28H681.11V124.384H670.766L670.19 132.832L671.366 133.528C672.59 132.664 673.742 132.352 675.326 132.352C677.846 132.352 679.598 133.888 679.598 136.336C679.598 138.904 677.534 140.464 675.182 140.464C672.854 140.464 671.39 139.528 670.118 138.256L668.99 139.672C670.454 141.112 672.326 142.312 675.35 142.312ZM695.054 138.928C695.054 141.28 695.894 142.456 700.358 142.456C703.358 142.456 705.758 142.264 707.894 141.952L707.966 139.888C705.59 140.368 703.262 140.608 700.478 140.608C697.622 140.608 696.998 140.08 696.998 138.424C696.998 136.048 696.998 128.2 696.998 125.68C696.998 124.984 697.07 124.168 697.166 123.472H694.91C695.03 124.168 695.054 124.96 695.054 125.68C695.054 128.224 695.054 136.72 695.054 138.928ZM708.998 128.2L707.582 127.096C707.294 127.264 706.814 127.408 706.31 127.528C704.486 127.96 692.222 130.432 689.15 130.792L689.534 132.808C692.414 132.184 705.35 129.592 706.094 129.448C705.374 130.864 703.622 133.504 701.822 135.16L703.478 136.144C705.422 134.176 707.294 131.152 708.398 129.16C708.566 128.872 708.806 128.464 708.998 128.2ZM730.682 124.528L728.498 123.784C728.378 124.288 728.162 125.08 727.994 125.56C727.178 127.912 725.978 130.576 724.01 133.12C721.538 136.264 718.466 139.12 714.002 141.256L715.634 142.744C720.17 140.392 723.29 137.224 725.594 134.296C727.562 131.8 729.002 128.68 729.914 126.304C730.106 125.8 730.442 124.984 730.682 124.528ZM718.01 127.36L716.738 128.872C719.378 130.48 722.498 132.856 724.226 134.296C726.626 136.312 728.714 138.208 730.706 140.512L732.218 138.856C730.322 136.792 727.946 134.704 725.546 132.736C723.722 131.272 720.386 128.872 718.01 127.36ZM754.442 125.968L753.242 125.032C752.858 125.152 752.21 125.224 751.442 125.224C750.53 125.224 743.114 125.224 742.178 125.224C741.434 125.224 740.066 125.128 739.754 125.08V127.24C740.018 127.216 741.314 127.12 742.178 127.12C742.994 127.12 750.674 127.12 751.538 127.12C750.914 129.112 749.162 131.968 747.53 133.816C745.058 136.552 741.53 139.432 737.642 140.92L739.178 142.528C742.97 140.8 746.402 137.944 749.09 134.944C751.082 132.736 752.906 129.376 753.866 127C753.986 126.688 754.298 126.16 754.442 125.968ZM749.402 133.696L748.034 135.04C750.626 137.32 753.434 140.392 755.162 142.672L756.818 141.208C755.186 139.216 751.994 135.856 749.402 133.696ZM769.226 131.008L767.906 132.352C770.882 134.2 774.986 137.152 777.194 139.168L778.61 137.488C776.234 135.568 772.298 132.808 769.226 131.008ZM780.194 126.64L778.61 125.68C778.226 125.824 777.698 125.896 777.05 125.896H769.418L768.65 127.624H777.53C776.978 129.856 775.466 132.904 773.618 135.112C771.458 137.68 768.194 140.224 763.73 141.568L765.434 143.08C769.994 141.4 773.114 138.832 775.298 136.144C777.41 133.552 778.922 130.36 779.642 127.912C779.762 127.528 780.002 126.976 780.194 126.64ZM772.106 123.16L769.922 122.464C769.778 123.088 769.394 123.952 769.154 124.36C768.05 126.568 765.578 130.168 761.474 132.736L763.058 133.96C766.898 131.32 769.61 127.696 771.026 125.056C771.266 124.6 771.698 123.784 772.106 123.16ZM785.69 131.608V133.96C786.458 133.912 787.73 133.864 789.05 133.864C790.826 133.864 800.402 133.864 802.226 133.864C803.282 133.864 804.29 133.936 804.794 133.96V131.608C804.242 131.656 803.402 131.752 802.202 131.752C800.426 131.752 790.802 131.752 789.05 131.752C787.682 131.752 786.434 131.68 785.69 131.608Z" fill="black"/>
<path d="M840.786 142.312C844.002 142.312 846.546 140.176 846.546 136.432C846.546 132.76 843.954 131.032 840.906 131.032C838.866 131.032 837.282 132.04 836.034 133.504L836.082 135.568C837.162 133.888 838.818 132.76 840.618 132.76C842.73 132.76 844.458 133.96 844.458 136.48C844.458 139.072 842.922 140.536 840.81 140.536C838.17 140.536 836.106 138.568 836.106 133.984C836.106 127.816 838.914 125.944 841.338 125.944C842.898 125.944 843.978 126.472 845.01 127.528L846.258 126.184C845.178 125.008 843.618 124.12 841.266 124.12C837.666 124.12 834.018 126.88 834.018 134.056C834.018 139.864 837.09 142.312 840.786 142.312ZM859.554 138.928C859.554 141.28 860.394 142.456 864.858 142.456C867.858 142.456 870.258 142.264 872.394 141.952L872.466 139.888C870.09 140.368 867.762 140.608 864.978 140.608C862.122 140.608 861.498 140.08 861.498 138.424C861.498 136.048 861.498 128.2 861.498 125.68C861.498 124.984 861.57 124.168 861.666 123.472H859.41C859.53 124.168 859.554 124.96 859.554 125.68C859.554 128.224 859.554 136.72 859.554 138.928ZM873.498 128.2L872.082 127.096C871.794 127.264 871.314 127.408 870.81 127.528C868.986 127.96 856.722 130.432 853.65 130.792L854.034 132.808C856.914 132.184 869.85 129.592 870.594 129.448C869.874 130.864 868.122 133.504 866.322 135.16L867.978 136.144C869.922 134.176 871.794 131.152 872.898 129.16C873.066 128.872 873.306 128.464 873.498 128.2ZM895.182 124.528L892.998 123.784C892.878 124.288 892.662 125.08 892.494 125.56C891.678 127.912 890.478 130.576 888.51 133.12C886.038 136.264 882.966 139.12 878.502 141.256L880.134 142.744C884.67 140.392 887.79 137.224 890.094 134.296C892.062 131.8 893.502 128.68 894.414 126.304C894.606 125.8 894.942 124.984 895.182 124.528ZM882.51 127.36L881.238 128.872C883.878 130.48 886.998 132.856 888.726 134.296C891.126 136.312 893.214 138.208 895.206 140.512L896.718 138.856C894.822 136.792 892.446 134.704 890.046 132.736C888.222 131.272 884.886 128.872 882.51 127.36ZM918.942 125.968L917.742 125.032C917.358 125.152 916.71 125.224 915.942 125.224C915.03 125.224 907.614 125.224 906.678 125.224C905.934 125.224 904.566 125.128 904.254 125.08V127.24C904.518 127.216 905.814 127.12 906.678 127.12C907.494 127.12 915.174 127.12 916.038 127.12C915.414 129.112 913.662 131.968 912.03 133.816C909.558 136.552 906.03 139.432 902.142 140.92L903.678 142.528C907.47 140.8 910.902 137.944 913.59 134.944C915.582 132.736 917.406 129.376 918.366 127C918.486 126.688 918.798 126.16 918.942 125.968ZM913.902 133.696L912.534 135.04C915.126 137.32 917.934 140.392 919.662 142.672L921.318 141.208C919.686 139.216 916.494 135.856 913.902 133.696ZM933.726 131.008L932.406 132.352C935.382 134.2 939.486 137.152 941.694 139.168L943.11 137.488C940.734 135.568 936.798 132.808 933.726 131.008ZM944.694 126.64L943.11 125.68C942.726 125.824 942.198 125.896 941.55 125.896H933.918L933.15 127.624H942.03C941.478 129.856 939.966 132.904 938.118 135.112C935.958 137.68 932.694 140.224 928.23 141.568L929.934 143.08C934.494 141.4 937.614 138.832 939.798 136.144C941.91 133.552 943.422 130.36 944.142 127.912C944.262 127.528 944.502 126.976 944.694 126.64ZM936.606 123.16L934.422 122.464C934.278 123.088 933.894 123.952 933.654 124.36C932.55 126.568 930.078 130.168 925.974 132.736L927.558 133.96C931.398 131.32 934.11 127.696 935.526 125.056C935.766 124.6 936.198 123.784 936.606 123.16ZM950.19 131.608V133.96C950.958 133.912 952.23 133.864 953.55 133.864C955.326 133.864 964.902 133.864 966.726 133.864C967.782 133.864 968.79 133.936 969.294 133.96V131.608C968.742 131.656 967.902 131.752 966.702 131.752C964.926 131.752 955.302 131.752 953.55 131.752C952.182 131.752 950.934 131.68 950.19 131.608Z" fill="black"/>
<path d="M1001.07 142H1003.43C1003.55 135.352 1004.96 131.44 1009.52 125.752V124.384H996.994V126.256H1007C1003.16 131.224 1001.39 135.184 1001.07 142ZM1022.55 138.928C1022.55 141.28 1023.39 142.456 1027.86 142.456C1030.86 142.456 1033.26 142.264 1035.39 141.952L1035.47 139.888C1033.09 140.368 1030.76 140.608 1027.98 140.608C1025.12 140.608 1024.5 140.08 1024.5 138.424C1024.5 136.048 1024.5 128.2 1024.5 125.68C1024.5 124.984 1024.57 124.168 1024.67 123.472H1022.41C1022.53 124.168 1022.55 124.96 1022.55 125.68C1022.55 128.224 1022.55 136.72 1022.55 138.928ZM1036.5 128.2L1035.08 127.096C1034.79 127.264 1034.31 127.408 1033.81 127.528C1031.99 127.96 1019.72 130.432 1016.65 130.792L1017.03 132.808C1019.91 132.184 1032.85 129.592 1033.59 129.448C1032.87 130.864 1031.12 133.504 1029.32 135.16L1030.98 136.144C1032.92 134.176 1034.79 131.152 1035.9 129.16C1036.07 128.872 1036.31 128.464 1036.5 128.2ZM1058.18 124.528L1056 123.784C1055.88 124.288 1055.66 125.08 1055.49 125.56C1054.68 127.912 1053.48 130.576 1051.51 133.12C1049.04 136.264 1045.97 139.12 1041.5 141.256L1043.13 142.744C1047.67 140.392 1050.79 137.224 1053.09 134.296C1055.06 131.8 1056.5 128.68 1057.41 126.304C1057.61 125.8 1057.94 124.984 1058.18 124.528ZM1045.51 127.36L1044.24 128.872C1046.88 130.48 1050 132.856 1051.73 134.296C1054.13 136.312 1056.21 138.208 1058.21 140.512L1059.72 138.856C1057.82 136.792 1055.45 134.704 1053.05 132.736C1051.22 131.272 1047.89 128.872 1045.51 127.36ZM1081.94 125.968L1080.74 125.032C1080.36 125.152 1079.71 125.224 1078.94 125.224C1078.03 125.224 1070.61 125.224 1069.68 125.224C1068.93 125.224 1067.57 125.128 1067.25 125.08V127.24C1067.52 127.216 1068.81 127.12 1069.68 127.12C1070.49 127.12 1078.17 127.12 1079.04 127.12C1078.41 129.112 1076.66 131.968 1075.03 133.816C1072.56 136.552 1069.03 139.432 1065.14 140.92L1066.68 142.528C1070.47 140.8 1073.9 137.944 1076.59 134.944C1078.58 132.736 1080.41 129.376 1081.37 127C1081.49 126.688 1081.8 126.16 1081.94 125.968ZM1076.9 133.696L1075.53 135.04C1078.13 137.32 1080.93 140.392 1082.66 142.672L1084.32 141.208C1082.69 139.216 1079.49 135.856 1076.9 133.696ZM1096.73 131.008L1095.41 132.352C1098.38 134.2 1102.49 137.152 1104.69 139.168L1106.11 137.488C1103.73 135.568 1099.8 132.808 1096.73 131.008ZM1107.69 126.64L1106.11 125.68C1105.73 125.824 1105.2 125.896 1104.55 125.896H1096.92L1096.15 127.624H1105.03C1104.48 129.856 1102.97 132.904 1101.12 135.112C1098.96 137.68 1095.69 140.224 1091.23 141.568L1092.93 143.08C1097.49 141.4 1100.61 138.832 1102.8 136.144C1104.91 133.552 1106.42 130.36 1107.14 127.912C1107.26 127.528 1107.5 126.976 1107.69 126.64ZM1099.61 123.16L1097.42 122.464C1097.28 123.088 1096.89 123.952 1096.65 124.36C1095.55 126.568 1093.08 130.168 1088.97 132.736L1090.56 133.96C1094.4 131.32 1097.11 127.696 1098.53 125.056C1098.77 124.6 1099.2 123.784 1099.61 123.16ZM1113.19 131.608V133.96C1113.96 133.912 1115.23 133.864 1116.55 133.864C1118.33 133.864 1127.9 133.864 1129.73 133.864C1130.78 133.864 1131.79 133.936 1132.29 133.96V131.608C1131.74 131.656 1130.9 131.752 1129.7 131.752C1127.93 131.752 1118.3 131.752 1116.55 131.752C1115.18 131.752 1113.93 131.68 1113.19 131.608Z" fill="black"/>
<path d="M1167.78 142.312C1171.77 142.312 1174.07 140.2 1174.07 137.608C1174.07 135.64 1172.94 134.272 1170.76 133.216V133.12C1172.56 131.848 1173.45 130.384 1173.42 128.704C1173.4 126.136 1171.29 124.096 1167.71 124.096C1164.4 124.096 1162.07 126.064 1162.07 128.704C1162.09 130.408 1162.93 131.704 1164.69 132.592V132.688C1162.57 133.816 1161.35 135.304 1161.35 137.512C1161.35 140.176 1163.75 142.312 1167.78 142.312ZM1169.34 132.544C1166.58 131.776 1164.11 130.912 1164.09 128.728C1164.09 127.048 1165.57 125.728 1167.66 125.728C1170.18 125.728 1171.48 127.288 1171.5 128.872C1171.5 130.192 1171.02 131.224 1169.34 132.544ZM1167.83 140.68C1165.14 140.68 1163.39 139.192 1163.39 137.344C1163.39 135.736 1164.28 134.488 1166.13 133.432C1169.37 134.392 1171.91 135.232 1171.91 137.56C1171.91 139.264 1170.42 140.68 1167.83 140.68ZM1187.05 138.928C1187.05 141.28 1187.89 142.456 1192.36 142.456C1195.36 142.456 1197.76 142.264 1199.89 141.952L1199.97 139.888C1197.59 140.368 1195.26 140.608 1192.48 140.608C1189.62 140.608 1189 140.08 1189 138.424C1189 136.048 1189 128.2 1189 125.68C1189 124.984 1189.07 124.168 1189.17 123.472H1186.91C1187.03 124.168 1187.05 124.96 1187.05 125.68C1187.05 128.224 1187.05 136.72 1187.05 138.928ZM1201 128.2L1199.58 127.096C1199.29 127.264 1198.81 127.408 1198.31 127.528C1196.49 127.96 1184.22 130.432 1181.15 130.792L1181.53 132.808C1184.41 132.184 1197.35 129.592 1198.09 129.448C1197.37 130.864 1195.62 133.504 1193.82 135.16L1195.48 136.144C1197.42 134.176 1199.29 131.152 1200.4 129.16C1200.57 128.872 1200.81 128.464 1201 128.2ZM1222.68 124.528L1220.5 123.784C1220.38 124.288 1220.16 125.08 1219.99 125.56C1219.18 127.912 1217.98 130.576 1216.01 133.12C1213.54 136.264 1210.47 139.12 1206 141.256L1207.63 142.744C1212.17 140.392 1215.29 137.224 1217.59 134.296C1219.56 131.8 1221 128.68 1221.91 126.304C1222.11 125.8 1222.44 124.984 1222.68 124.528ZM1210.01 127.36L1208.74 128.872C1211.38 130.48 1214.5 132.856 1216.23 134.296C1218.63 136.312 1220.71 138.208 1222.71 140.512L1224.22 138.856C1222.32 136.792 1219.95 134.704 1217.55 132.736C1215.72 131.272 1212.39 128.872 1210.01 127.36ZM1246.44 125.968L1245.24 125.032C1244.86 125.152 1244.21 125.224 1243.44 125.224C1242.53 125.224 1235.11 125.224 1234.18 125.224C1233.43 125.224 1232.07 125.128 1231.75 125.08V127.24C1232.02 127.216 1233.31 127.12 1234.18 127.12C1234.99 127.12 1242.67 127.12 1243.54 127.12C1242.91 129.112 1241.16 131.968 1239.53 133.816C1237.06 136.552 1233.53 139.432 1229.64 140.92L1231.18 142.528C1234.97 140.8 1238.4 137.944 1241.09 134.944C1243.08 132.736 1244.91 129.376 1245.87 127C1245.99 126.688 1246.3 126.16 1246.44 125.968ZM1241.4 133.696L1240.03 135.04C1242.63 137.32 1245.43 140.392 1247.16 142.672L1248.82 141.208C1247.19 139.216 1243.99 135.856 1241.4 133.696ZM1261.23 131.008L1259.91 132.352C1262.88 134.2 1266.99 137.152 1269.19 139.168L1270.61 137.488C1268.23 135.568 1264.3 132.808 1261.23 131.008ZM1272.19 126.64L1270.61 125.68C1270.23 125.824 1269.7 125.896 1269.05 125.896H1261.42L1260.65 127.624H1269.53C1268.98 129.856 1267.47 132.904 1265.62 135.112C1263.46 137.68 1260.19 140.224 1255.73 141.568L1257.43 143.08C1261.99 141.4 1265.11 138.832 1267.3 136.144C1269.41 133.552 1270.92 130.36 1271.64 127.912C1271.76 127.528 1272 126.976 1272.19 126.64ZM1264.11 123.16L1261.92 122.464C1261.78 123.088 1261.39 123.952 1261.15 124.36C1260.05 126.568 1257.58 130.168 1253.47 132.736L1255.06 133.96C1258.9 131.32 1261.61 127.696 1263.03 125.056C1263.27 124.6 1263.7 123.784 1264.11 123.16ZM1277.69 131.608V133.96C1278.46 133.912 1279.73 133.864 1281.05 133.864C1282.83 133.864 1292.4 133.864 1294.23 133.864C1295.28 133.864 1296.29 133.936 1296.79 133.96V131.608C1296.24 131.656 1295.4 131.752 1294.2 131.752C1292.43 131.752 1282.8 131.752 1281.05 131.752C1279.68 131.752 1278.43 131.68 1277.69 131.608Z" fill="black"/>
<rect x="31.5288" y="196" width="100.893" height="393" fill="#FFA500" fill-opacity="0.25"/>
<path d="M98.6671 303.44L96.2271 301.88C95.4671 302.04 94.6671 302.08 94.0671 302.08C92.2671 302.08 76.3071 302.08 74.0271 302.08C72.7071 302.08 71.1071 301.96 70.0271 301.8V305.36C71.0271 305.32 72.3871 305.24 73.9871 305.24C76.3071 305.24 92.1471 305.24 94.4671 305.24C93.9071 309.08 92.0671 314.64 89.2271 318.28C85.8671 322.56 81.3871 325.96 73.6271 327.88L76.3471 330.88C83.6671 328.6 88.4271 324.88 92.0671 320.2C95.2671 316.08 97.1871 309.64 98.0671 305.44C98.2271 304.64 98.3871 304 98.6671 303.44ZM73.1071 376.76L75.3871 378.72C76.0271 378.36 76.6671 378.16 77.0671 378.04C87.0671 375.12 95.3071 370.2 100.507 363.76L98.7071 360.96C93.7071 367.4 84.4671 372.64 76.7871 374.6C76.7871 372.56 76.7871 355.68 76.7871 351.88C76.7871 350.76 76.9471 349.24 77.0671 348.28H73.1471C73.3071 349.04 73.4671 350.84 73.4671 351.92C73.4671 355.72 73.4671 372.28 73.4671 374.8C73.4671 375.56 73.3871 376.12 73.1071 376.76ZM94.7071 394.2L92.5871 395.08C93.6671 396.6 95.0271 399 95.7871 400.64L97.9471 399.68C97.1471 398.04 95.7071 395.6 94.7071 394.2ZM99.0671 392.6L96.9871 393.48C98.1071 395 99.4271 397.24 100.307 399L102.427 398.04C101.667 396.56 100.147 394.04 99.0671 392.6ZM75.9071 421.56C75.9071 425.52 77.2671 427.48 84.7471 427.48C89.7471 427.48 93.7071 427.16 97.3071 426.64L97.4271 423.2C93.4271 423.96 89.5871 424.36 84.9471 424.36C80.1871 424.36 79.1471 423.48 79.1471 420.72C79.1471 416.76 79.1471 403.72 79.1471 399.48C79.1471 398.32 79.2671 396.96 79.4271 395.8H75.6271C75.8271 396.96 75.9071 398.28 75.9071 399.48C75.9071 403.76 75.9071 417.92 75.9071 421.56ZM99.1471 403.72L96.7871 401.88C96.2671 402.16 95.5071 402.4 94.6671 402.6C91.6271 403.28 71.1471 407.4 66.0671 408.04L66.7071 411.4C71.4671 410.32 93.0671 406.04 94.3071 405.76C93.1071 408.16 90.1471 412.56 87.1471 415.28L89.9471 416.96C93.1471 413.64 96.3071 408.64 98.1471 405.32C98.4271 404.8 98.8271 404.12 99.1471 403.72ZM75.7071 443.72L74.5471 446.68C80.0671 447.4 90.5471 449.68 95.3871 451.48L96.6671 448.4C91.6271 446.64 80.9071 444.4 75.7071 443.72ZM73.8671 454.28L72.6671 457.28C78.3471 458.16 88.1471 460.36 92.7871 462.16L94.0271 459.08C89.0671 457.28 79.3471 455.24 73.8671 454.28ZM71.7071 465.92L70.4671 469C76.9071 470 88.8271 472.68 94.1071 475L95.5071 471.92C90.0271 469.72 78.3871 467 71.7071 465.92Z" fill="black"/>
<rect x="185" y="196" width="284.661" height="393" fill="#FFA500" fill-opacity="0.5"/>
<path d="M251.597 377.28V379.84H284.357V377.28H251.597ZM252.877 406.6V409.12H283.157V406.6H252.877ZM259.477 382.48V384.76H276.317V382.48H259.477ZM259.477 387.52V389.8H276.317V387.52H259.477ZM249.717 392.68V395.2H286.077V392.68H249.717ZM258.117 399.84V402.32H277.757V399.84H258.117ZM257.677 373.44V394.08H260.677V373.44H257.677ZM275.277 373.44V394.08H278.277V373.44H275.277ZM266.277 396.48V408H269.357V396.48H266.277ZM259.797 393.36C257.637 396.88 253.357 400.32 249.317 401.92C249.997 402.48 250.837 403.52 251.277 404.2C255.477 402.24 259.877 398.44 262.317 394.32L259.797 393.36ZM276.157 393.36L273.797 394.28C276.117 398.2 280.357 401.92 284.597 403.72C285.037 403 285.917 401.96 286.597 401.4C282.437 399.92 278.277 396.76 276.157 393.36ZM289.717 375.8V378.6H303.557V375.8H289.717ZM293.717 387.84V390.52H299.757V402.28H293.717V404.92H302.317V387.84H293.717ZM294.397 377.16C293.557 384.56 291.997 391.68 289.037 396.24C289.597 396.88 290.477 398.24 290.837 398.88C294.237 393.68 296.117 385.84 297.237 377.6L294.397 377.16ZM292.517 387.84V408.24H295.037V387.84H292.517ZM303.477 377.92V380.32H313.917V377.92H303.477ZM303.397 391.4V393.92H323.997V391.4H303.397ZM314.397 398.68V401.16H323.757V398.68H314.397ZM307.837 373.44V390.16H310.357V373.44H307.837ZM307.557 379.24C306.517 382.16 304.317 385.48 302.317 387.16C302.837 387.64 303.477 388.56 303.757 389.2C305.957 387.08 308.237 383.4 309.397 380.28L307.557 379.24ZM321.637 379.32L319.997 379.92C320.957 383.28 322.917 387.08 325.077 389C325.477 388.4 326.197 387.64 326.757 387.2C324.637 385.64 322.677 382.32 321.637 379.32ZM310.277 381.2L308.957 382.2C309.837 383.04 311.997 385.32 312.717 386.32L314.197 384.56C313.597 383.92 311.037 381.76 310.277 381.2ZM314.717 377.92V380.32H326.157V377.92H314.717ZM318.717 373.44V390.16H321.317V373.44H318.717ZM318.357 379.24C317.277 382.32 315.077 385.56 312.877 387.16C313.357 387.64 313.997 388.52 314.277 389.12C316.637 387.12 318.997 383.52 320.117 380.2L318.357 379.24ZM323.157 391.4V391.76C322.717 393.48 321.957 395.48 321.357 396.76L323.677 397.64C324.437 396.12 325.317 393.92 325.997 391.88L324.117 391.28L323.637 391.4H323.157ZM308.517 399.24L306.477 400C308.557 407.84 312.317 409.52 318.717 409.52H325.797C325.917 408.8 326.277 407.56 326.677 406.92C325.357 406.96 319.757 406.96 318.877 406.96C313.677 406.96 310.197 405.68 308.517 399.24ZM306.597 395.88C306.197 400.76 305.077 405.6 300.957 408.24C301.597 408.68 302.437 409.64 302.797 410.2C307.477 407.12 308.797 401.72 309.317 395.88H306.597ZM313.117 392.2V406.92L315.917 408.12V392.2H313.117ZM340.837 377.24V383.72H343.597V379.76H362.837V383.72H365.717V377.24H340.837ZM351.557 373.44V379.16H354.597V373.44H351.557ZM351.637 384.8V401.12H354.517V384.8H351.637ZM355.477 404.56C358.357 406.2 362.037 408.72 363.837 410.28L366.197 408.48C364.277 406.92 360.557 404.56 357.717 402.96L355.477 404.56ZM347.957 403.24C345.757 405.12 342.117 407 338.877 408.16C339.517 408.64 340.637 409.76 341.117 410.36C344.357 408.92 348.277 406.56 350.797 404.28L347.957 403.24ZM345.397 396.8H361.037V400.24H345.397V396.8ZM345.397 391.2H361.037V394.56H345.397V391.2ZM342.677 388.84V402.56H363.837V388.84H342.677ZM343.877 383.36V385.88H362.677V383.36H343.877ZM331.397 375.92C333.917 377.08 336.957 378.96 338.437 380.44L340.197 377.92C338.677 376.56 335.597 374.8 333.077 373.72L331.397 375.92ZM329.397 386.76C331.957 387.84 334.997 389.6 336.517 390.92L338.237 388.44C336.677 387.16 333.557 385.44 331.077 384.52L329.397 386.76ZM330.517 407.84L333.157 409.68C335.277 405.96 337.837 400.88 339.717 396.6L337.357 394.84C335.277 399.44 332.477 404.72 330.517 407.84ZM375.317 393.68V410.32H378.277V396.08H397.797V410.32H400.877V393.68H375.317ZM376.877 399.92V402.32H398.757V399.92H376.877ZM376.997 406.36V408.76H398.757V406.36H376.997ZM386.277 389.92C385.877 391.24 384.997 393.28 384.237 394.64L386.677 395.28C387.517 394.08 388.557 392.28 389.437 390.52L386.277 389.92ZM370.797 375.48V377.88H384.117V375.48H370.797ZM383.317 375.48V388.72C383.317 389.12 383.197 389.28 382.677 389.28C382.197 389.32 380.597 389.32 378.757 389.28C379.117 389.92 379.477 390.84 379.597 391.52C382.157 391.52 383.757 391.52 384.797 391.12C385.757 390.72 386.077 390.04 386.077 388.72V375.48H383.317ZM388.597 375.48V377.88H402.557V375.48H388.597ZM401.197 375.48V388.72C401.197 389.2 401.037 389.28 400.517 389.32C399.997 389.36 398.237 389.36 396.357 389.28C396.717 389.96 397.077 390.96 397.197 391.64C399.877 391.68 401.597 391.64 402.637 391.24C403.717 390.8 403.997 390.12 403.997 388.72V375.48H401.197ZM387.677 387.28L388.797 389.6C391.877 388.52 395.797 387 399.477 385.6L399.037 383.4C394.837 384.88 390.597 386.36 387.677 387.28ZM389.717 380.08C391.637 381.08 393.957 382.68 395.037 383.92L396.677 381.92C395.557 380.72 393.197 379.2 391.277 378.28L389.717 380.08ZM369.837 388.08L370.997 390.56C373.917 389.4 377.557 387.88 381.077 386.44L380.597 384.2C376.597 385.68 372.597 387.2 369.837 388.08ZM372.477 380.04C374.397 381.12 376.637 382.8 377.717 384L379.357 382.04C378.277 380.84 375.957 379.28 374.077 378.28L372.477 380.04Z" fill="black"/>
<rect x="513" y="198" width="771" height="393" fill="#FFA500" fill-opacity="0.75"/>
<path d="M871.45 376.24V382.72H874.21V378.76H893.45V382.72H896.33V376.24H871.45ZM882.17 372.44V378.16H885.21V372.44H882.17ZM882.25 383.8V400.12H885.13V383.8H882.25ZM886.09 403.56C888.97 405.2 892.65 407.72 894.45 409.28L896.81 407.48C894.89 405.92 891.17 403.56 888.33 401.96L886.09 403.56ZM878.57 402.24C876.37 404.12 872.73 406 869.49 407.16C870.13 407.64 871.25 408.76 871.73 409.36C874.97 407.92 878.89 405.56 881.41 403.28L878.57 402.24ZM876.01 395.8H891.65V399.24H876.01V395.8ZM876.01 390.2H891.65V393.56H876.01V390.2ZM873.29 387.84V401.56H894.45V387.84H873.29ZM874.49 382.36V384.88H893.29V382.36H874.49ZM862.01 374.92C864.53 376.08 867.57 377.96 869.05 379.44L870.81 376.92C869.29 375.56 866.21 373.8 863.69 372.72L862.01 374.92ZM860.01 385.76C862.57 386.84 865.61 388.6 867.13 389.92L868.85 387.44C867.29 386.16 864.17 384.44 861.69 383.52L860.01 385.76ZM861.13 406.84L863.77 408.68C865.89 404.96 868.45 399.88 870.33 395.6L867.97 393.84C865.89 398.44 863.09 403.72 861.13 406.84ZM905.93 392.68V409.32H908.89V395.08H928.41V409.32H931.49V392.68H905.93ZM907.49 398.92V401.32H929.37V398.92H907.49ZM907.61 405.36V407.76H929.37V405.36H907.61ZM916.89 388.92C916.49 390.24 915.61 392.28 914.85 393.64L917.29 394.28C918.13 393.08 919.17 391.28 920.05 389.52L916.89 388.92ZM901.41 374.48V376.88H914.73V374.48H901.41ZM913.93 374.48V387.72C913.93 388.12 913.81 388.28 913.29 388.28C912.81 388.32 911.21 388.32 909.37 388.28C909.73 388.92 910.09 389.84 910.21 390.52C912.77 390.52 914.37 390.52 915.41 390.12C916.37 389.72 916.69 389.04 916.69 387.72V374.48H913.93ZM919.21 374.48V376.88H933.17V374.48H919.21ZM931.81 374.48V387.72C931.81 388.2 931.65 388.28 931.13 388.32C930.61 388.36 928.85 388.36 926.97 388.28C927.33 388.96 927.69 389.96 927.81 390.64C930.49 390.68 932.21 390.64 933.25 390.24C934.33 389.8 934.61 389.12 934.61 387.72V374.48H931.81ZM918.29 386.28L919.41 388.6C922.49 387.52 926.41 386 930.09 384.6L929.65 382.4C925.45 383.88 921.21 385.36 918.29 386.28ZM920.33 379.08C922.25 380.08 924.57 381.68 925.65 382.92L927.29 380.92C926.17 379.72 923.81 378.2 921.89 377.28L920.33 379.08ZM900.45 387.08L901.61 389.56C904.53 388.4 908.17 386.88 911.69 385.44L911.21 383.2C907.21 384.68 903.21 386.2 900.45 387.08ZM903.09 379.04C905.01 380.12 907.25 381.8 908.33 383L909.97 381.04C908.89 379.84 906.57 378.28 904.69 377.28L903.09 379.04Z" fill="black"/>
<g filter="url(#filter0_d_132_192)">
<ellipse cx="163" cy="634.5" rx="107" ry="100.5" fill="#FFA500"/>
<path d="M112.124 610.588V619.324H114.168V612.072H128.028V619.268H130.156V610.588H112.124ZM113.188 613.752V615.152H128.84V613.752H113.188ZM113.188 616.944V618.4H128.84V616.944H113.188ZM119.824 593.452V608.656H121.952V593.452H119.824ZM111.536 595.412V596.812H127.916V601.684H111.2V603.056H130.016V595.412H111.536ZM108.568 598.436V600.004H133.432V598.436H108.568ZM110.444 604.624V606.052H131.556V604.624H110.444ZM108.512 607.704V609.272H133.46V607.704H108.512ZM136.484 609.104V610.98H148.412V609.104H136.484ZM136.484 598.492V600.2H148.244V598.492H136.484ZM146.172 594.068C145.808 595.076 145.136 596.56 144.576 597.512L145.976 598.044C146.592 597.176 147.292 595.888 147.964 594.628L146.172 594.068ZM141.412 593.788V606.164H143.26V593.788H141.412ZM136.96 594.712C137.66 595.748 138.304 597.12 138.528 598.044L140.096 597.372C139.872 596.504 139.172 595.16 138.444 594.152L136.96 594.712ZM141.44 613.164C143.232 614.424 145.556 616.272 146.704 617.364L148.076 615.936C146.872 614.872 144.52 613.108 142.756 611.932L141.44 613.164ZM143.176 600.508L142.112 601.488C143.316 602.244 146.284 604.456 147.292 605.408L148.412 603.868C147.628 603.28 144.184 601.04 143.176 600.508ZM141.244 599.388C140.124 601.46 137.968 603.672 135.98 604.736C136.372 605.044 136.96 605.688 137.24 606.108C139.256 604.848 141.496 602.328 142.672 599.948L141.244 599.388ZM148.412 594.796V596.644H161.712V594.796H148.412ZM151.268 605.184H158.856V607.872H151.268V605.184ZM151.268 609.44H158.856V612.212H151.268V609.44ZM151.268 600.928H158.856V603.616H151.268V600.928ZM149.364 599.276V613.864H160.844V599.276H149.364ZM153.956 595.692C153.732 596.98 153.284 598.884 152.864 600.116L154.656 600.508C155.16 599.332 155.748 597.596 156.252 595.972L153.956 595.692ZM151.94 614.368C150.82 615.6 148.524 617.028 146.48 617.84C146.956 618.204 147.544 618.848 147.88 619.24C149.952 618.4 152.332 616.888 153.76 615.46L151.94 614.368ZM156 615.572C157.652 616.636 159.752 618.232 160.732 619.24L162.356 618.092C161.292 617.056 159.192 615.544 157.54 614.508L156 615.572ZM141.356 606.78V609.636C141.356 612.1 140.852 615.04 135.952 617.168C136.316 617.56 136.876 618.288 137.1 618.764C142.588 616.328 143.288 612.772 143.288 609.664V606.78H141.356ZM169.692 604.54H164.26V606.5H167.704V614.452H169.692V604.54ZM169.692 613.612H167.9C166.612 614.844 165.128 616.104 163.924 617.028L165.016 619.016C166.36 617.756 167.62 616.552 168.824 615.348C170.588 617.56 173.136 618.568 176.86 618.708C180.052 618.82 186.156 618.764 189.348 618.624C189.432 618.036 189.768 617.084 190.02 616.636C186.576 616.86 179.996 616.944 176.832 616.804C173.5 616.664 171.008 615.712 169.692 613.612ZM164.4 595.216C166.024 596.616 167.844 598.632 168.572 600.032L170.336 598.828C169.552 597.428 167.676 595.496 166.024 594.152L164.4 595.216ZM171.764 605.324V606.948H188.76V605.324H171.764ZM170.868 609.636V611.288H189.628V609.636H170.868ZM175.908 603.308V610.448H177.924V603.308H175.908ZM182.516 603.308V610.448H184.504V603.308H182.516ZM172.464 597.876V599.36H179.24V594.6H171.4V596.056H177.392V597.876H172.464ZM171.876 597.876V600.816C171.876 602.496 172.436 602.916 174.508 602.916C174.928 602.916 177.588 602.916 178.036 602.916C179.464 602.916 179.996 602.44 180.192 600.62C179.688 600.536 178.988 600.312 178.652 600.032C178.568 601.264 178.428 601.432 177.756 601.432C177.224 601.432 175.096 601.432 174.704 601.432C173.808 601.432 173.668 601.32 173.668 600.788V597.876H171.876ZM181.704 597.876V599.36H188.368V594.6H180.584V596.056H186.548V597.876H181.704ZM181.088 597.876V600.788C181.088 602.496 181.676 602.916 183.804 602.916C184.252 602.916 187.108 602.916 187.556 602.916C189.068 602.916 189.6 602.44 189.796 600.536C189.292 600.424 188.592 600.2 188.228 599.948C188.144 601.264 188.004 601.432 187.304 601.432C186.744 601.432 184.448 601.432 184 601.432C183.048 601.432 182.88 601.32 182.88 600.788V597.876H181.088ZM182.012 612.548C183.944 613.556 186.016 614.9 187.136 615.936L189.208 615.012C187.864 613.976 185.568 612.604 183.524 611.624L182.012 612.548ZM176.888 611.568C175.628 612.716 173.528 613.78 171.624 614.536C172.072 614.816 172.856 615.488 173.164 615.852C175.04 614.956 177.308 613.584 178.736 612.212L176.888 611.568ZM192.792 601.796V603.616H216.9V601.796H192.792ZM194.948 596.812V598.576H210.852V596.812H194.948ZM202.088 593.48V602.692H204.16V593.48H202.088ZM212.588 605.408C209.648 606.22 204.328 606.92 199.904 607.312C200.1 607.676 200.352 608.348 200.408 608.768C204.972 608.432 210.432 607.788 213.96 606.836L212.588 605.408ZM214.072 594.796C208.808 601.236 200.38 606.444 191.644 609.468C192.064 609.86 192.708 610.7 192.988 611.12C201.612 607.816 210.124 602.608 215.78 595.748L214.072 594.796ZM199.596 605.464C199.064 608.068 198.196 611.568 197.496 613.696L199.596 613.976C200.24 611.876 201.08 608.432 201.668 605.716L199.596 605.464ZM211.804 610.84L211.776 611.12C211.272 614.956 210.684 616.664 209.984 617.224C209.704 617.448 209.368 617.476 208.78 617.476C208.108 617.476 206.288 617.448 204.524 617.28C204.888 617.84 205.14 618.652 205.196 619.212C206.932 619.324 208.584 619.352 209.452 619.296C210.432 619.268 211.02 619.128 211.608 618.596C212.532 617.784 213.148 615.936 213.82 611.792C213.876 611.456 213.932 610.84 213.932 610.84H211.804ZM199.288 610.84L198.84 612.604H212.364V610.84H199.288ZM163 637.392C161.348 637.392 160.004 638.736 160.004 640.36C160.004 642.012 161.348 643.356 163 643.356C164.624 643.356 165.968 642.012 165.968 640.36C165.968 638.736 164.624 637.392 163 637.392ZM144.94 673.94V675.676H152.612V673.94H144.94ZM144.94 678.812V680.548H152.696V678.812H144.94ZM139.172 683.824V685.784H158.94V683.824H139.172ZM137.884 668.872V687.268H139.928V670.832H157.96V687.268H160.088V668.872H137.884ZM143.96 670.104V684.72H145.864V670.104H143.96ZM151.8 670.104V684.636H153.732V670.104H151.8ZM147.6 664.28C147.404 665.904 146.844 668.228 146.396 669.74L148.3 670.272C148.86 668.872 149.448 666.716 150.036 664.84L147.6 664.28ZM136.624 663.356V665.372H161.432V663.356H136.624ZM180.108 661.48V665.316H182.236V661.48H180.108ZM173.472 664.476V666.296H189.04V664.476H173.472ZM172.352 671.028V672.876H189.824V671.028H172.352ZM176.104 666.548C176.692 668.088 177.196 670.104 177.28 671.336L179.184 670.86C179.072 669.656 178.54 667.696 177.924 666.184L176.104 666.548ZM184.42 666.128C184.084 667.528 183.412 669.628 182.852 670.944L184.644 671.252C185.232 669.992 185.904 668.088 186.492 666.436L184.42 666.128ZM172.492 675.648V677.468H189.712V675.648H172.492ZM178.904 672.372C177.672 675.424 175.74 679.568 174.34 682.06L176.16 682.676C177.588 680.1 179.576 676.012 181.004 672.792L178.904 672.372ZM175.768 681.696C180.052 682.984 185.288 685.364 187.864 687.268L189.208 685.672C186.492 683.712 181.228 681.472 177 680.268L175.768 681.696ZM184.42 676.824C183.216 682.284 179.856 684.664 171.792 685.476C172.128 685.924 172.492 686.652 172.632 687.24C181.284 686.092 185.12 683.376 186.464 677.132L184.42 676.824ZM163.756 676.376L164.232 678.448C166.724 677.692 169.944 676.684 172.996 675.732L172.744 673.856C169.44 674.808 166.024 675.816 163.756 676.376ZM164.232 667.136V669.096H172.772V667.136H164.232ZM168.04 661.508V684.692C168.04 685.112 167.872 685.224 167.508 685.224C167.172 685.252 165.996 685.252 164.736 685.196C165.016 685.784 165.296 686.708 165.38 687.24C167.2 687.24 168.348 687.184 169.076 686.82C169.804 686.484 170.056 685.896 170.056 684.692V661.508H168.04Z" fill="black"/>
</g>
<g filter="url(#filter1_d_132_192)">
<ellipse cx="490" cy="634.5" rx="107" ry="100.5" fill="#FFA500"/>
<path d="M439.124 610.588V619.324H441.168V612.072H455.028V619.268H457.156V610.588H439.124ZM440.188 613.752V615.152H455.84V613.752H440.188ZM440.188 616.944V618.4H455.84V616.944H440.188ZM446.824 593.452V608.656H448.952V593.452H446.824ZM438.536 595.412V596.812H454.916V601.684H438.2V603.056H457.016V595.412H438.536ZM435.568 598.436V600.004H460.432V598.436H435.568ZM437.444 604.624V606.052H458.556V604.624H437.444ZM435.512 607.704V609.272H460.46V607.704H435.512ZM463.484 609.104V610.98H475.412V609.104H463.484ZM463.484 598.492V600.2H475.244V598.492H463.484ZM473.172 594.068C472.808 595.076 472.136 596.56 471.576 597.512L472.976 598.044C473.592 597.176 474.292 595.888 474.964 594.628L473.172 594.068ZM468.412 593.788V606.164H470.26V593.788H468.412ZM463.96 594.712C464.66 595.748 465.304 597.12 465.528 598.044L467.096 597.372C466.872 596.504 466.172 595.16 465.444 594.152L463.96 594.712ZM468.44 613.164C470.232 614.424 472.556 616.272 473.704 617.364L475.076 615.936C473.872 614.872 471.52 613.108 469.756 611.932L468.44 613.164ZM470.176 600.508L469.112 601.488C470.316 602.244 473.284 604.456 474.292 605.408L475.412 603.868C474.628 603.28 471.184 601.04 470.176 600.508ZM468.244 599.388C467.124 601.46 464.968 603.672 462.98 604.736C463.372 605.044 463.96 605.688 464.24 606.108C466.256 604.848 468.496 602.328 469.672 599.948L468.244 599.388ZM475.412 594.796V596.644H488.712V594.796H475.412ZM478.268 605.184H485.856V607.872H478.268V605.184ZM478.268 609.44H485.856V612.212H478.268V609.44ZM478.268 600.928H485.856V603.616H478.268V600.928ZM476.364 599.276V613.864H487.844V599.276H476.364ZM480.956 595.692C480.732 596.98 480.284 598.884 479.864 600.116L481.656 600.508C482.16 599.332 482.748 597.596 483.252 595.972L480.956 595.692ZM478.94 614.368C477.82 615.6 475.524 617.028 473.48 617.84C473.956 618.204 474.544 618.848 474.88 619.24C476.952 618.4 479.332 616.888 480.76 615.46L478.94 614.368ZM483 615.572C484.652 616.636 486.752 618.232 487.732 619.24L489.356 618.092C488.292 617.056 486.192 615.544 484.54 614.508L483 615.572ZM468.356 606.78V609.636C468.356 612.1 467.852 615.04 462.952 617.168C463.316 617.56 463.876 618.288 464.1 618.764C469.588 616.328 470.288 612.772 470.288 609.664V606.78H468.356ZM496.692 604.54H491.26V606.5H494.704V614.452H496.692V604.54ZM496.692 613.612H494.9C493.612 614.844 492.128 616.104 490.924 617.028L492.016 619.016C493.36 617.756 494.62 616.552 495.824 615.348C497.588 617.56 500.136 618.568 503.86 618.708C507.052 618.82 513.156 618.764 516.348 618.624C516.432 618.036 516.768 617.084 517.02 616.636C513.576 616.86 506.996 616.944 503.832 616.804C500.5 616.664 498.008 615.712 496.692 613.612ZM491.4 595.216C493.024 596.616 494.844 598.632 495.572 600.032L497.336 598.828C496.552 597.428 494.676 595.496 493.024 594.152L491.4 595.216ZM498.764 605.324V606.948H515.76V605.324H498.764ZM497.868 609.636V611.288H516.628V609.636H497.868ZM502.908 603.308V610.448H504.924V603.308H502.908ZM509.516 603.308V610.448H511.504V603.308H509.516ZM499.464 597.876V599.36H506.24V594.6H498.4V596.056H504.392V597.876H499.464ZM498.876 597.876V600.816C498.876 602.496 499.436 602.916 501.508 602.916C501.928 602.916 504.588 602.916 505.036 602.916C506.464 602.916 506.996 602.44 507.192 600.62C506.688 600.536 505.988 600.312 505.652 600.032C505.568 601.264 505.428 601.432 504.756 601.432C504.224 601.432 502.096 601.432 501.704 601.432C500.808 601.432 500.668 601.32 500.668 600.788V597.876H498.876ZM508.704 597.876V599.36H515.368V594.6H507.584V596.056H513.548V597.876H508.704ZM508.088 597.876V600.788C508.088 602.496 508.676 602.916 510.804 602.916C511.252 602.916 514.108 602.916 514.556 602.916C516.068 602.916 516.6 602.44 516.796 600.536C516.292 600.424 515.592 600.2 515.228 599.948C515.144 601.264 515.004 601.432 514.304 601.432C513.744 601.432 511.448 601.432 511 601.432C510.048 601.432 509.88 601.32 509.88 600.788V597.876H508.088ZM509.012 612.548C510.944 613.556 513.016 614.9 514.136 615.936L516.208 615.012C514.864 613.976 512.568 612.604 510.524 611.624L509.012 612.548ZM503.888 611.568C502.628 612.716 500.528 613.78 498.624 614.536C499.072 614.816 499.856 615.488 500.164 615.852C502.04 614.956 504.308 613.584 505.736 612.212L503.888 611.568ZM519.792 601.796V603.616H543.9V601.796H519.792ZM521.948 596.812V598.576H537.852V596.812H521.948ZM529.088 593.48V602.692H531.16V593.48H529.088ZM539.588 605.408C536.648 606.22 531.328 606.92 526.904 607.312C527.1 607.676 527.352 608.348 527.408 608.768C531.972 608.432 537.432 607.788 540.96 606.836L539.588 605.408ZM541.072 594.796C535.808 601.236 527.38 606.444 518.644 609.468C519.064 609.86 519.708 610.7 519.988 611.12C528.612 607.816 537.124 602.608 542.78 595.748L541.072 594.796ZM526.596 605.464C526.064 608.068 525.196 611.568 524.496 613.696L526.596 613.976C527.24 611.876 528.08 608.432 528.668 605.716L526.596 605.464ZM538.804 610.84L538.776 611.12C538.272 614.956 537.684 616.664 536.984 617.224C536.704 617.448 536.368 617.476 535.78 617.476C535.108 617.476 533.288 617.448 531.524 617.28C531.888 617.84 532.14 618.652 532.196 619.212C533.932 619.324 535.584 619.352 536.452 619.296C537.432 619.268 538.02 619.128 538.608 618.596C539.532 617.784 540.148 615.936 540.82 611.792C540.876 611.456 540.932 610.84 540.932 610.84H538.804ZM526.288 610.84L525.84 612.604H539.364V610.84H526.288ZM490 637.392C488.348 637.392 487.004 638.736 487.004 640.36C487.004 642.012 488.348 643.356 490 643.356C491.624 643.356 492.968 642.012 492.968 640.36C492.968 638.736 491.624 637.392 490 637.392ZM471.94 673.94V675.676H479.612V673.94H471.94ZM471.94 678.812V680.548H479.696V678.812H471.94ZM466.172 683.824V685.784H485.94V683.824H466.172ZM464.884 668.872V687.268H466.928V670.832H484.96V687.268H487.088V668.872H464.884ZM470.96 670.104V684.72H472.864V670.104H470.96ZM478.8 670.104V684.636H480.732V670.104H478.8ZM474.6 664.28C474.404 665.904 473.844 668.228 473.396 669.74L475.3 670.272C475.86 668.872 476.448 666.716 477.036 664.84L474.6 664.28ZM463.624 663.356V665.372H488.432V663.356H463.624ZM507.108 661.48V665.316H509.236V661.48H507.108ZM500.472 664.476V666.296H516.04V664.476H500.472ZM499.352 671.028V672.876H516.824V671.028H499.352ZM503.104 666.548C503.692 668.088 504.196 670.104 504.28 671.336L506.184 670.86C506.072 669.656 505.54 667.696 504.924 666.184L503.104 666.548ZM511.42 666.128C511.084 667.528 510.412 669.628 509.852 670.944L511.644 671.252C512.232 669.992 512.904 668.088 513.492 666.436L511.42 666.128ZM499.492 675.648V677.468H516.712V675.648H499.492ZM505.904 672.372C504.672 675.424 502.74 679.568 501.34 682.06L503.16 682.676C504.588 680.1 506.576 676.012 508.004 672.792L505.904 672.372ZM502.768 681.696C507.052 682.984 512.288 685.364 514.864 687.268L516.208 685.672C513.492 683.712 508.228 681.472 504 680.268L502.768 681.696ZM511.42 676.824C510.216 682.284 506.856 684.664 498.792 685.476C499.128 685.924 499.492 686.652 499.632 687.24C508.284 686.092 512.12 683.376 513.464 677.132L511.42 676.824ZM490.756 676.376L491.232 678.448C493.724 677.692 496.944 676.684 499.996 675.732L499.744 673.856C496.44 674.808 493.024 675.816 490.756 676.376ZM491.232 667.136V669.096H499.772V667.136H491.232ZM495.04 661.508V684.692C495.04 685.112 494.872 685.224 494.508 685.224C494.172 685.252 492.996 685.252 491.736 685.196C492.016 685.784 492.296 686.708 492.38 687.24C494.2 687.24 495.348 687.184 496.076 686.82C496.804 686.484 497.056 685.896 497.056 684.692V661.508H495.04Z" fill="black"/>
</g>
<path d="M215.061 387.061C215.646 386.475 215.646 385.525 215.061 384.939L205.515 375.393C204.929 374.808 203.979 374.808 203.393 375.393C202.808 375.979 202.808 376.929 203.393 377.515L211.879 386L203.393 394.485C202.808 395.071 202.808 396.021 203.393 396.607C203.979 397.192 204.929 397.192 205.515 396.607L215.061 387.061ZM114 387.5H214V384.5H114V387.5Z" fill="black"/>
<path d="M541.061 387.061C541.646 386.475 541.646 385.525 541.061 384.939L531.515 375.393C530.929 374.808 529.979 374.808 529.393 375.393C528.808 375.979 528.808 376.929 529.393 377.515L537.879 386L529.393 394.485C528.808 395.071 528.808 396.021 529.393 396.607C529.979 397.192 530.929 397.192 531.515 396.607L541.061 387.061ZM440 387.5H540V384.5H440V387.5Z" fill="black"/>
<defs>
<filter id="filter0_d_132_192" x="52" y="534" width="222" height="209" filterUnits="userSpaceOnUse" color-interpolation-filters="sRGB">
<feFlood flood-opacity="0" result="BackgroundImageFix"/>
<feColorMatrix in="SourceAlpha" type="matrix" values="0 0 0 0 0 0 0 0 0 0 0 0 0 0 0 0 0 0 127 0" result="hardAlpha"/>
<feOffset dy="4"/>
<feGaussianBlur stdDeviation="2"/>
<feComposite in2="hardAlpha" operator="out"/>
<feColorMatrix type="matrix" values="0 0 0 0 0 0 0 0 0 0 0 0 0 0 0 0 0 0 0.25 0"/>
<feBlend mode="normal" in2="BackgroundImageFix" result="effect1_dropShadow_132_192"/>
<feBlend mode="normal" in="SourceGraphic" in2="effect1_dropShadow_132_192" result="shape"/>
</filter>
<filter id="filter1_d_132_192" x="379" y="534" width="222" height="209" filterUnits="userSpaceOnUse" color-interpolation-filters="sRGB">
<feFlood flood-opacity="0" result="BackgroundImageFix"/>
<feColorMatrix in="SourceAlpha" type="matrix" values="0 0 0 0 0 0 0 0 0 0 0 0 0 0 0 0 0 0 127 0" result="hardAlpha"/>
<feOffset dy="4"/>
<feGaussianBlur stdDeviation="2"/>
<feComposite in2="hardAlpha" operator="out"/>
<feColorMatrix type="matrix" values="0 0 0 0 0 0 0 0 0 0 0 0 0 0 0 0 0 0 0.25 0"/>
<feBlend mode="normal" in2="BackgroundImageFix" result="effect1_dropShadow_132_192"/>
<feBlend mode="normal" in="SourceGraphic" in2="effect1_dropShadow_132_192" result="shape"/>
</filter>
</defs>
</svg>
