<svg width="48" height="48" viewBox="0 0 48 48" fill="none" xmlns="http://www.w3.org/2000/svg">
<path d="M44.35 19.65L43.2 17.15L40.7 16L43.2 14.85L44.35 12.35L45.5 14.85L48 16L45.5 17.15L44.35 19.65ZM38 10.9L36.25 7.2L32.55 5.45L36.25 3.7L38 0L39.75 3.7L43.45 5.45L39.75 7.2L38 10.9ZM18 44C16.8667 44 15.9083 43.6083 15.125 42.825C14.3417 42.0417 13.95 41.0833 13.95 39.95H22.05C22.05 41.0833 21.6583 42.0417 20.875 42.825C20.0917 43.6083 19.1333 44 18 44ZM9.9 36.85V33.85H26.1V36.85H9.9ZM10.15 30.8C7.95 29.3667 6.20833 27.575 4.925 25.425C3.64167 23.275 3 20.85 3 18.15C3 14.0833 4.48333 10.5667 7.45 7.6C10.4167 4.63333 13.9333 3.15 18 3.15C22.0667 3.15 25.5833 4.63333 28.55 7.6C31.5167 10.5667 33 14.0833 33 18.15C33 20.85 32.3667 23.275 31.1 25.425C29.8333 27.575 28.0833 29.3667 25.85 30.8H10.15ZM11.25 27.8H24.8C26.4 26.7333 27.6667 25.35 28.6 23.65C29.5333 21.95 30 20.1167 30 18.15C30 14.85 28.825 12.025 26.475 9.675C24.125 7.325 21.3 6.15 18 6.15C14.7 6.15 11.875 7.325 9.525 9.675C7.175 12.025 6 14.85 6 18.15C6 20.1167 6.46667 21.95 7.4 23.65C8.33333 25.35 9.61667 26.7333 11.25 27.8Z" fill="black"/>
</svg>
