<svg width="54" height="54" viewBox="0 0 54 54" fill="none" xmlns="http://www.w3.org/2000/svg">
<path d="M27 47.25V43.2563L39.15 31.1062L43.1437 35.1L30.9937 47.25H27ZM6.75 35.4375V32.0625H23.625V35.4375H6.75ZM45.5625 32.6812L41.5688 28.6875L43.2 27.0562C43.5 26.7562 43.8937 26.6062 44.3813 26.6062C44.8688 26.6062 45.2625 26.7562 45.5625 27.0562L47.1938 28.6875C47.4938 28.9875 47.6437 29.3812 47.6437 29.8687C47.6437 30.3562 47.4938 30.75 47.1938 31.05L45.5625 32.6812ZM6.75 26.1562V22.7812H33.1875V26.1562H6.75ZM6.75 16.875V13.5H33.1875V16.875H6.75Z" fill="black"/>
</svg>
