<svg width="48" height="48" viewBox="0 0 48 48" fill="none" xmlns="http://www.w3.org/2000/svg">
<path d="M43 41.45V9H5V25H2V9C2 8.16667 2.29167 7.45833 2.875 6.875C3.45833 6.29167 4.16667 6 5 6H43C43.8333 6 44.5417 6.29167 45.125 6.875C45.7083 7.45833 46 8.16667 46 9V38C46 38.8667 45.7167 39.625 45.15 40.275C44.5833 40.925 43.8667 41.3167 43 41.45ZM18 27.95C15.8 27.95 14 27.25 12.6 25.85C11.2 24.45 10.5 22.65 10.5 20.45C10.5 18.25 11.2 16.45 12.6 15.05C14 13.65 15.8 12.95 18 12.95C20.2 12.95 22 13.65 23.4 15.05C24.8 16.45 25.5 18.25 25.5 20.45C25.5 22.65 24.8 24.45 23.4 25.85C22 27.25 20.2 27.95 18 27.95ZM18 24.95C19.3 24.95 20.375 24.525 21.225 23.675C22.075 22.825 22.5 21.75 22.5 20.45C22.5 19.15 22.075 18.075 21.225 17.225C20.375 16.375 19.3 15.95 18 15.95C16.7 15.95 15.625 16.375 14.775 17.225C13.925 18.075 13.5 19.15 13.5 20.45C13.5 21.75 13.925 22.825 14.775 23.675C15.625 24.525 16.7 24.95 18 24.95ZM2 44V39.3C2 38.0333 2.31667 36.95 2.95 36.05C3.58333 35.15 4.4 34.4667 5.4 34C7.63333 33 9.775 32.25 11.825 31.75C13.875 31.25 15.9333 31 18 31C20.0667 31 22.1167 31.2583 24.15 31.775C26.1833 32.2917 28.3167 33.0333 30.55 34C31.5833 34.4667 32.4167 35.15 33.05 36.05C33.6833 36.95 34 38.0333 34 39.3V44H2ZM5 41H31V39.3C31 38.7667 30.8417 38.2583 30.525 37.775C30.2083 37.2917 29.8167 36.9333 29.35 36.7C27.2167 35.6667 25.2667 34.9583 23.5 34.575C21.7333 34.1917 19.9 34 18 34C16.1 34 14.25 34.1917 12.45 34.575C10.65 34.9583 8.7 35.6667 6.6 36.7C6.13333 36.9333 5.75 37.2917 5.45 37.775C5.15 38.2583 5 38.7667 5 39.3V41Z" fill="black"/>
</svg>
