<svg width="56" height="48" viewBox="0 0 56 48" fill="none" xmlns="http://www.w3.org/2000/svg">
<g filter="url(#filter0_d_221_26)">
<path d="M4 36V33.35C4 32.05 4.7 31 6.1 30.2C7.5 29.4 9.3 29 11.5 29C11.9333 29 12.3333 29.0083 12.7 29.025C13.0667 29.0417 13.4333 29.0833 13.8 29.15C13.5333 29.7167 13.3333 30.2917 13.2 30.875C13.0667 31.4583 13 32.0833 13 32.75V36H4ZM16 36V32.75C16 30.5833 17.1083 28.8333 19.325 27.5C21.5417 26.1667 24.4333 25.5 28 25.5C31.6 25.5 34.5 26.1667 36.7 27.5C38.9 28.8333 40 30.5833 40 32.75V36H16ZM43 36V32.75C43 32.0833 42.9417 31.4583 42.825 30.875C42.7083 30.2917 42.5167 29.7167 42.25 29.15C42.6167 29.0833 42.9833 29.0417 43.35 29.025C43.7167 29.0083 44.1 29 44.5 29C46.7667 29 48.5833 29.4 49.95 30.2C51.3167 31 52 32.05 52 33.35V36H43ZM28 28.5C25.3333 28.5 23.1667 28.9 21.5 29.7C19.8333 30.5 19 31.5167 19 32.75V33H37V32.7C37 31.5 36.175 30.5 34.525 29.7C32.875 28.9 30.7 28.5 28 28.5ZM11.5 27.5C10.5333 27.5 9.70833 27.1583 9.025 26.475C8.34167 25.7917 8 24.9667 8 24C8 23.0333 8.34167 22.2083 9.025 21.525C9.70833 20.8417 10.5333 20.5 11.5 20.5C12.4667 20.5 13.2917 20.8417 13.975 21.525C14.6583 22.2083 15 23.0333 15 24C15 24.9667 14.6583 25.7917 13.975 26.475C13.2917 27.1583 12.4667 27.5 11.5 27.5ZM44.5 27.5C43.5333 27.5 42.7083 27.1583 42.025 26.475C41.3417 25.7917 41 24.9667 41 24C41 23.0333 41.3417 22.2083 42.025 21.525C42.7083 20.8417 43.5333 20.5 44.5 20.5C45.4667 20.5 46.2917 20.8417 46.975 21.525C47.6583 22.2083 48 23.0333 48 24C48 24.9667 47.6583 25.7917 46.975 26.475C46.2917 27.1583 45.4667 27.5 44.5 27.5ZM28 24C26.3333 24 24.9167 23.4167 23.75 22.25C22.5833 21.0833 22 19.6667 22 18C22 16.3 22.5833 14.875 23.75 13.725C24.9167 12.575 26.3333 12 28 12C29.7 12 31.125 12.575 32.275 13.725C33.425 14.875 34 16.3 34 18C34 19.6667 33.425 21.0833 32.275 22.25C31.125 23.4167 29.7 24 28 24ZM28 15C27.1667 15 26.4583 15.2833 25.875 15.85C25.2917 16.4167 25 17.1333 25 18C25 18.8333 25.2917 19.5417 25.875 20.125C26.4583 20.7083 27.1667 21 28 21C28.8667 21 29.5833 20.7083 30.15 20.125C30.7167 19.5417 31 18.8333 31 18C31 17.1333 30.7167 16.4167 30.15 15.85C29.5833 15.2833 28.8667 15 28 15Z" fill="black"/>
</g>
<defs>
<filter id="filter0_d_221_26" x="0" y="0" width="56" height="56" filterUnits="userSpaceOnUse" color-interpolation-filters="sRGB">
<feFlood flood-opacity="0" result="BackgroundImageFix"/>
<feColorMatrix in="SourceAlpha" type="matrix" values="0 0 0 0 0 0 0 0 0 0 0 0 0 0 0 0 0 0 127 0" result="hardAlpha"/>
<feOffset dy="4"/>
<feGaussianBlur stdDeviation="2"/>
<feComposite in2="hardAlpha" operator="out"/>
<feColorMatrix type="matrix" values="0 0 0 0 0 0 0 0 0 0 0 0 0 0 0 0 0 0 0.25 0"/>
<feBlend mode="normal" in2="BackgroundImageFix" result="effect1_dropShadow_221_26"/>
<feBlend mode="normal" in="SourceGraphic" in2="effect1_dropShadow_221_26" result="shape"/>
</filter>
</defs>
</svg>
